<svg width="1024" height="1024" xmlns="http://www.w3.org/2000/svg" xmlns:xlink="http://www.w3.org/1999/xlink"><g><g><g><g filter="url(#filter0_d)"><use xlink:href="#path0_fill" transform="translate(64 64)" fill="url(#paint0_linear)"/><mask id="a"><path fill="#fff" transform="translate(64 64)" d="M-2-2h900v900H-2z"/><use xlink:href="#path0_fill" transform="translate(64 64)"/></mask><g mask="url(#a)"><use xlink:href="#path1_stroke_2x" transform="translate(64 64)" fill="url(#paint1_linear)"/></g></g><g><use xlink:href="#path2_fill" transform="translate(64 64)" fill="url(#paint2_linear)"/></g><g filter="url(#filter1_d)"><use xlink:href="#path3_fill" transform="translate(202 202)" fill="#FFF"/></g></g></g></g><defs><filter id="filter0_d" filterUnits="userSpaceOnUse" x="42" y="50" width="940" height="940" color-interpolation-filters="sRGB"><feFlood flood-opacity="0" result="BackgroundImageFix"/><feColorMatrix in="SourceAlpha" values="0 0 0 0 0 0 0 0 0 0 0 0 0 0 0 0 0 0 255 0"/><feOffset dy="8"/><feGaussianBlur stdDeviation="10"/><feColorMatrix values="0 0 0 0 0 0 0 0 0 0 0 0 0 0 0 0 0 0 0.3 0"/><feBlend in2="BackgroundImageFix" result="effect1_dropShadow"/><feBlend in="SourceGraphic" in2="effect1_dropShadow" result="shape"/></filter><filter id="filter1_d" filterUnits="userSpaceOnUse" x="197" y="194" width="630" height="601" color-interpolation-filters="sRGB"><feFlood flood-opacity="0" result="BackgroundImageFix"/><feColorMatrix in="SourceAlpha" values="0 0 0 0 0 0 0 0 0 0 0 0 0 0 0 0 0 0 255 0"/><feOffset dy="12"/><feGaussianBlur stdDeviation="10"/><feColorMatrix values="0 0 0 0 0 0 0 0 0 0 0 0 0 0 0 0 0 0 0.2 0"/><feBlend in2="BackgroundImageFix" result="effect1_dropShadow"/><feBlend in="SourceGraphic" in2="effect1_dropShadow" result="shape"/></filter><linearGradient id="paint0_linear" x2="1" gradientUnits="userSpaceOnUse" gradientTransform="matrix(0 896 -896 0 896 0)"><stop offset="0" stop-color="#F2994A"/><stop offset="1" stop-color="#EB5757"/></linearGradient><linearGradient id="paint1_linear" x2="1" gradientUnits="userSpaceOnUse" gradientTransform="matrix(0 896 -896 0 896 0)"><stop offset="0" stop-opacity=".05"/><stop offset="1" stop-opacity=".1"/></linearGradient><linearGradient id="paint2_linear" x2="1" gradientUnits="userSpaceOnUse" gradientTransform="matrix(0 896 -896 0 896 0)"><stop offset="0" stop-color="#FEFEFE"/><stop offset="1" stop-color="#C5C5C5"/></linearGradient><path id="path0_fill" d="M896 448c0 247.424-200.576 448-448 448S0 695.424 0 448 200.576 0 448 0s448 200.576 448 448z"/><path id="path1_stroke_2x" d="M894 448c0 246.319-199.681 446-446 446v4c248.528 0 450-201.472 450-450h-4zM448 894C201.681 894 2 694.319 2 448h-4c0 248.528 201.472 450 450 450v-4zM2 448C2 201.681 201.681 2 448 2v-4C199.472-2-2 199.472-2 448h4zM448 2c246.319 0 446 199.681 446 446h4C898 199.472 696.528-2 448-2v4z"/><path id="path2_fill" fill-rule="evenodd" d="M448 896c247.424 0 448-200.576 448-448S695.424 0 448 0 0 200.576 0 448s200.576 448 448 448zm0-36c227.541 0 412-184.459 412-412S675.541 36 448 36 36 220.459 36 448s184.459 412 412 412z"/><path id="path3_fill" d="M310 0l91.107 184.602 203.721 29.603-147.414 143.693 34.799 202.897L310 465l-182.213 95.795 34.799-202.897L15.173 214.205l203.72-29.603L310 0z"/></defs></svg>